<?xml version="1.0" encoding="UTF-8" standalone="no"?>
<!-- Created with Inkscape (http://www.inkscape.org/) -->

<svg
   version="1.1"
   id="svg1"
   width="22.734667"
   height="560"
   viewBox="0 0 22.734667 560"
   sodipodi:docname="chains.svg"
   inkscape:version="1.3.1 (91b66b0783, 2023-11-16)"
   xmlns:inkscape="http://www.inkscape.org/namespaces/inkscape"
   xmlns:sodipodi="http://sodipodi.sourceforge.net/DTD/sodipodi-0.dtd"
   xmlns="http://www.w3.org/2000/svg"
   xmlns:svg="http://www.w3.org/2000/svg">
  <defs
     id="defs1" />
  <sodipodi:namedview
     id="namedview1"
     pagecolor="#00000000"
     bordercolor="#eeeeee"
     borderopacity="1"
     inkscape:showpageshadow="0"
     inkscape:pageopacity="0"
     inkscape:pagecheckerboard="0"
     inkscape:deskcolor="#d1d1d1"
     inkscape:zoom="1.4053571"
     inkscape:cx="222.36341"
     inkscape:cy="191.7662"
     inkscape:window-width="1920"
     inkscape:window-height="1001"
     inkscape:window-x="-9"
     inkscape:window-y="-9"
     inkscape:window-maximized="1"
     inkscape:current-layer="g1">
    <inkscape:page
       x="0"
       y="0"
       inkscape:label="1"
       id="page1"
       width="22.734667"
       height="560"
       margin="0"
       bleed="0" />
  </sodipodi:namedview>
  <g
     id="g1"
     inkscape:groupmode="layer"
     inkscape:label="1"
     transform="translate(-62.207997)">
    <path
       id="path130"
       d="m 60.055,12.227 c 0,-1.559 -1.231,-2.829 -2.743,-2.829 h -4.261 c -1.512,0 -2.742,1.27 -2.742,2.829 v 13.726 c 0,1.563 1.23,2.832 2.742,2.832 h 4.261 c 1.512,0 2.743,-1.269 2.743,-2.832 z m 3.652,0 v 13.726 c 0,3.633 -2.875,6.602 -6.395,6.602 h -4.261 c -3.52,0 -6.395,-2.969 -6.395,-6.602 V 12.227 c 0,-3.629 2.875,-6.598 6.395,-6.598 h 4.261 c 3.52,0 6.395,2.969 6.395,6.598"
       style="fill:#100f0d;fill-opacity:1;fill-rule:nonzero;stroke:none"
       transform="scale(1.3333333)" />
    <path
       id="path131"
       d="m 57.008,38.184 v -11.11 c 0,-1.293 -0.82,-2.355 -1.828,-2.355 -1.004,0 -1.825,1.062 -1.825,2.355 v 11.11 h 3.653"
       style="fill:#100f0d;fill-opacity:1;fill-rule:nonzero;stroke:none"
       transform="scale(1.3333333)" />
    <path
       id="path132"
       d="m 53.355,0 v 11.105 c 0,1.297 0.821,2.36 1.825,2.36 1.008,0 1.828,-1.063 1.828,-2.36 V 0 h -3.653"
       style="fill:#100f0d;fill-opacity:1;fill-rule:nonzero;stroke:none"
       transform="scale(1.3333333)" />
    <path
       id="path133"
       d="m 60.055,50.406 c 0,-1.554 -1.231,-2.824 -2.743,-2.824 h -4.261 c -1.512,0 -2.742,1.27 -2.742,2.824 v 13.731 c 0,1.558 1.23,2.828 2.742,2.828 h 4.261 c 1.512,0 2.743,-1.27 2.743,-2.828 z m 3.652,0 v 13.731 c 0,3.633 -2.875,6.597 -6.395,6.597 h -4.261 c -3.52,0 -6.395,-2.964 -6.395,-6.597 V 50.406 c 0,-3.625 2.875,-6.597 6.395,-6.597 h 4.261 c 3.52,0 6.395,2.972 6.395,6.597"
       style="fill:#100f0d;fill-opacity:1;fill-rule:nonzero;stroke:none"
       transform="scale(1.3333333)" />
    <path
       id="path134"
       d="M 57.008,76.363 V 65.258 c 0,-1.297 -0.82,-2.356 -1.828,-2.356 -1.004,0 -1.825,1.059 -1.825,2.356 v 11.105 h 3.653"
       style="fill:#100f0d;fill-opacity:1;fill-rule:nonzero;stroke:none"
       transform="scale(1.3333333)" />
    <path
       id="path135"
       d="m 53.355,38.184 v 11.101 c 0,1.301 0.821,2.36 1.825,2.36 1.008,0 1.828,-1.059 1.828,-2.36 V 38.184 h -3.653"
       style="fill:#100f0d;fill-opacity:1;fill-rule:nonzero;stroke:none"
       transform="scale(1.3333333)" />
    <path
       id="path136"
       d="m 60.055,88.59 c 0,-1.559 -1.231,-2.824 -2.743,-2.824 h -4.261 c -1.512,0 -2.742,1.265 -2.742,2.824 v 13.73 c 0,1.559 1.23,2.828 2.742,2.828 h 4.261 c 1.512,0 2.743,-1.269 2.743,-2.828 z m 3.652,0 v 13.73 c 0,3.629 -2.875,6.598 -6.395,6.598 h -4.261 c -3.52,0 -6.395,-2.969 -6.395,-6.598 V 88.59 c 0,-3.629 2.875,-6.598 6.395,-6.598 h 4.261 c 3.52,0 6.395,2.969 6.395,6.598"
       style="fill:#100f0d;fill-opacity:1;fill-rule:nonzero;stroke:none"
       transform="scale(1.3333333)" />
    <path
       id="path137"
       d="m 57.008,114.547 v -11.106 c 0,-1.296 -0.82,-2.355 -1.828,-2.355 -1.004,0 -1.825,1.059 -1.825,2.355 v 11.106 h 3.653"
       style="fill:#100f0d;fill-opacity:1;fill-rule:nonzero;stroke:none"
       transform="scale(1.3333333)" />
    <path
       id="path138"
       d="m 53.355,76.363 v 11.106 c 0,1.297 0.821,2.359 1.825,2.359 1.008,0 1.828,-1.062 1.828,-2.359 V 76.363 h -3.653"
       style="fill:#100f0d;fill-opacity:1;fill-rule:nonzero;stroke:none"
       transform="scale(1.3333333)" />
    <path
       id="path139"
       d="m 60.055,126.77 c 0,-1.555 -1.231,-2.825 -2.743,-2.825 h -4.261 c -1.512,0 -2.742,1.27 -2.742,2.825 v 13.73 c 0,1.559 1.23,2.828 2.742,2.828 h 4.261 c 1.512,0 2.743,-1.269 2.743,-2.828 z m 3.652,0 v 13.73 c 0,3.633 -2.875,6.602 -6.395,6.602 h -4.261 c -3.52,0 -6.395,-2.969 -6.395,-6.602 v -13.73 c 0,-3.625 2.875,-6.598 6.395,-6.598 h 4.261 c 3.52,0 6.395,2.973 6.395,6.598"
       style="fill:#100f0d;fill-opacity:1;fill-rule:nonzero;stroke:none"
       transform="scale(1.3333333)" />
    <path
       id="path140"
       d="m 57.008,152.727 v -11.106 c 0,-1.297 -0.82,-2.355 -1.828,-2.355 -1.004,0 -1.825,1.058 -1.825,2.355 v 11.106 h 3.653"
       style="fill:#100f0d;fill-opacity:1;fill-rule:nonzero;stroke:none"
       transform="scale(1.3333333)" />
    <path
       id="path141"
       d="m 53.355,114.547 v 11.105 c 0,1.297 0.821,2.356 1.825,2.356 1.008,0 1.828,-1.059 1.828,-2.356 v -11.105 h -3.653"
       style="fill:#100f0d;fill-opacity:1;fill-rule:nonzero;stroke:none"
       transform="scale(1.3333333)" />
    <path
       id="path142"
       d="m 60.055,164.953 c 0,-1.558 -1.231,-2.824 -2.743,-2.824 h -4.261 c -1.512,0 -2.742,1.266 -2.742,2.824 v 13.731 c 0,1.558 1.23,2.828 2.742,2.828 h 4.261 c 1.512,0 2.743,-1.27 2.743,-2.828 z m 3.652,0 v 13.731 c 0,3.628 -2.875,6.597 -6.395,6.597 h -4.261 c -3.52,0 -6.395,-2.969 -6.395,-6.597 v -13.731 c 0,-3.629 2.875,-6.598 6.395,-6.598 h 4.261 c 3.52,0 6.395,2.969 6.395,6.598"
       style="fill:#100f0d;fill-opacity:1;fill-rule:nonzero;stroke:none"
       transform="scale(1.3333333)" />
    <path
       id="path143"
       d="m 57.008,190.91 v -11.105 c 0,-1.297 -0.82,-2.36 -1.828,-2.36 -1.004,0 -1.825,1.063 -1.825,2.36 v 11.105 h 3.653"
       style="fill:#100f0d;fill-opacity:1;fill-rule:nonzero;stroke:none"
       transform="scale(1.3333333)" />
    <path
       id="path144"
       d="m 53.355,152.727 v 11.105 c 0,1.301 0.821,2.359 1.825,2.359 1.008,0 1.828,-1.058 1.828,-2.359 v -11.105 h -3.653"
       style="fill:#100f0d;fill-opacity:1;fill-rule:nonzero;stroke:none"
       transform="scale(1.3333333)" />
    <path
       id="path145"
       d="m 60.055,203.137 c 0,-1.559 -1.231,-2.828 -2.743,-2.828 h -4.261 c -1.512,0 -2.742,1.269 -2.742,2.828 v 13.726 c 0,1.559 1.23,2.828 2.742,2.828 h 4.261 c 1.512,0 2.743,-1.269 2.743,-2.828 z m 3.652,0 v 13.726 c 0,3.633 -2.875,6.602 -6.395,6.602 h -4.261 c -3.52,0 -6.395,-2.969 -6.395,-6.602 v -13.726 c 0,-3.629 2.875,-6.602 6.395,-6.602 h 4.261 c 3.52,0 6.395,2.973 6.395,6.602"
       style="fill:#100f0d;fill-opacity:1;fill-rule:nonzero;stroke:none"
       transform="scale(1.3333333)" />
    <path
       id="path146"
       d="m 57.008,229.09 v -11.106 c 0,-1.296 -0.82,-2.355 -1.828,-2.355 -1.004,0 -1.825,1.059 -1.825,2.355 v 11.106 h 3.653"
       style="fill:#100f0d;fill-opacity:1;fill-rule:nonzero;stroke:none"
       transform="scale(1.3333333)" />
    <path
       id="path147"
       d="m 53.355,190.91 v 11.106 c 0,1.296 0.821,2.355 1.825,2.355 1.008,0 1.828,-1.059 1.828,-2.355 V 190.91 h -3.653"
       style="fill:#100f0d;fill-opacity:1;fill-rule:nonzero;stroke:none"
       transform="scale(1.3333333)" />
    <path
       id="path148"
       d="m 60.055,241.316 c 0,-1.558 -1.231,-2.824 -2.743,-2.824 h -4.261 c -1.512,0 -2.742,1.266 -2.742,2.824 v 13.731 c 0,1.558 1.23,2.828 2.742,2.828 h 4.261 c 1.512,0 2.743,-1.27 2.743,-2.828 z m 3.652,0 v 13.731 c 0,3.629 -2.875,6.598 -6.395,6.598 h -4.261 c -3.52,0 -6.395,-2.969 -6.395,-6.598 v -13.731 c 0,-3.628 2.875,-6.597 6.395,-6.597 h 4.261 c 3.52,0 6.395,2.969 6.395,6.597"
       style="fill:#100f0d;fill-opacity:1;fill-rule:nonzero;stroke:none"
       transform="scale(1.3333333)" />
    <path
       id="path149"
       d="m 57.008,267.273 v -11.105 c 0,-1.297 -0.82,-2.356 -1.828,-2.356 -1.004,0 -1.825,1.059 -1.825,2.356 v 11.105 h 3.653"
       style="fill:#100f0d;fill-opacity:1;fill-rule:nonzero;stroke:none"
       transform="scale(1.3333333)" />
    <path
       id="path150"
       d="m 53.355,229.09 v 11.105 c 0,1.297 0.821,2.36 1.825,2.36 1.008,0 1.828,-1.063 1.828,-2.36 V 229.09 h -3.653"
       style="fill:#100f0d;fill-opacity:1;fill-rule:nonzero;stroke:none"
       transform="scale(1.3333333)" />
    <path
       id="path151"
       d="m 60.055,279.5 c 0,-1.559 -1.231,-2.828 -2.743,-2.828 h -4.261 c -1.512,0 -2.742,1.269 -2.742,2.828 v 13.73 c 0,1.555 1.23,2.829 2.742,2.829 h 4.261 c 1.512,0 2.743,-1.274 2.743,-2.829 z m 3.652,0 v 13.73 c 0,3.629 -2.875,6.598 -6.395,6.598 h -4.261 c -3.52,0 -6.395,-2.969 -6.395,-6.598 V 279.5 c 0,-3.629 2.875,-6.602 6.395,-6.602 h 4.261 c 3.52,0 6.395,2.973 6.395,6.602"
       style="fill:#100f0d;fill-opacity:1;fill-rule:nonzero;stroke:none"
       transform="scale(1.3333333)" />
    <path
       id="path152"
       d="m 57.008,305.453 v -11.105 c 0,-1.293 -0.82,-2.356 -1.828,-2.356 -1.004,0 -1.825,1.063 -1.825,2.356 v 11.105 h 3.653"
       style="fill:#100f0d;fill-opacity:1;fill-rule:nonzero;stroke:none"
       transform="scale(1.3333333)" />
    <path
       id="path153"
       d="m 53.355,267.273 v 11.106 c 0,1.297 0.821,2.355 1.825,2.355 1.008,0 1.828,-1.058 1.828,-2.355 v -11.106 h -3.653"
       style="fill:#100f0d;fill-opacity:1;fill-rule:nonzero;stroke:none"
       transform="scale(1.3333333)" />
    <path
       id="path154"
       d="m 60.055,317.68 c 0,-1.559 -1.231,-2.825 -2.743,-2.825 h -4.261 c -1.512,0 -2.742,1.266 -2.742,2.825 v 13.73 c 0,1.559 1.23,2.828 2.742,2.828 h 4.261 c 1.512,0 2.743,-1.269 2.743,-2.828 z m 3.652,0 v 13.73 c 0,3.629 -2.875,6.598 -6.395,6.598 h -4.261 c -3.52,0 -6.395,-2.969 -6.395,-6.598 v -13.73 c 0,-3.625 2.875,-6.598 6.395,-6.598 h 4.261 c 3.52,0 6.395,2.973 6.395,6.598"
       style="fill:#100f0d;fill-opacity:1;fill-rule:nonzero;stroke:none"
       transform="scale(1.3333333)" />
    <path
       id="path155"
       d="m 57.008,343.637 v -11.106 c 0,-1.297 -0.82,-2.355 -1.828,-2.355 -1.004,0 -1.825,1.058 -1.825,2.355 v 11.106 h 3.653"
       style="fill:#100f0d;fill-opacity:1;fill-rule:nonzero;stroke:none"
       transform="scale(1.3333333)" />
    <path
       id="path156"
       d="m 53.355,305.453 v 11.109 c 0,1.297 0.821,2.356 1.825,2.356 1.008,0 1.828,-1.059 1.828,-2.356 v -11.109 h -3.653"
       style="fill:#100f0d;fill-opacity:1;fill-rule:nonzero;stroke:none"
       transform="scale(1.3333333)" />
    <path
       id="path157"
       d="m 60.055,355.863 c 0,-1.558 -1.231,-2.828 -2.743,-2.828 h -4.261 c -1.512,0 -2.742,1.27 -2.742,2.828 v 13.731 c 0,1.554 1.23,2.824 2.742,2.824 h 4.261 c 1.512,0 2.743,-1.27 2.743,-2.824 z m 3.652,0 v 13.731 c 0,3.629 -2.875,6.597 -6.395,6.597 h -4.261 c -3.52,0 -6.395,-2.968 -6.395,-6.597 v -13.731 c 0,-3.629 2.875,-6.597 6.395,-6.597 h 4.261 c 3.52,0 6.395,2.968 6.395,6.597"
       style="fill:#100f0d;fill-opacity:1;fill-rule:nonzero;stroke:none"
       transform="scale(1.3333333)" />
    <path
       id="path158"
       d="m 57.008,381.816 v -11.101 c 0,-1.297 -0.82,-2.36 -1.828,-2.36 -1.004,0 -1.825,1.063 -1.825,2.36 v 11.101 h 3.653"
       style="fill:#100f0d;fill-opacity:1;fill-rule:nonzero;stroke:none"
       transform="scale(1.3333333)" />
    <path
       id="path159"
       d="m 53.355,343.637 v 11.105 c 0,1.297 0.821,2.36 1.825,2.36 1.008,0 1.828,-1.063 1.828,-2.36 v -11.105 h -3.653"
       style="fill:#100f0d;fill-opacity:1;fill-rule:nonzero;stroke:none"
       transform="scale(1.3333333)" />
    <path
       id="path160"
       d="m 60.055,394.043 c 0,-1.559 -1.231,-2.824 -2.743,-2.824 h -4.261 c -1.512,0 -2.742,1.265 -2.742,2.824 v 13.73 c 0,1.559 1.23,2.829 2.742,2.829 h 4.261 c 1.512,0 2.743,-1.27 2.743,-2.829 z m 3.652,0 v 13.73 c 0,3.629 -2.875,6.602 -6.395,6.602 h -4.261 c -3.52,0 -6.395,-2.973 -6.395,-6.602 v -13.73 c 0,-3.629 2.875,-6.598 6.395,-6.598 h 4.261 c 3.52,0 6.395,2.969 6.395,6.598"
       style="fill:#100f0d;fill-opacity:1;fill-rule:nonzero;stroke:none"
       transform="scale(1.3333333)" />
    <path
       id="path161"
       d="m 57.008,420 v -11.105 c 0,-1.297 -0.82,-2.356 -1.828,-2.356 -1.004,0 -1.825,1.059 -1.825,2.356 V 420 h 3.653"
       style="fill:#100f0d;fill-opacity:1;fill-rule:nonzero;stroke:none"
       transform="scale(1.3333333)" />
    <path
       id="path162"
       d="m 53.355,381.816 v 11.106 c 0,1.301 0.821,2.359 1.825,2.359 1.008,0 1.828,-1.058 1.828,-2.359 v -11.106 h -3.653"
       style="fill:#100f0d;fill-opacity:1;fill-rule:nonzero;stroke:none"
       transform="scale(1.3333333)" />
  </g>
</svg>
