<?xml version="1.0" encoding="UTF-8" standalone="no"?>
<!-- Uploaded to: SVG Repo, www.svgrepo.com, Generator: SVG Repo Mixer Tools -->

<svg
   fill="#000000"
   height="533.34668"
   width="800"
   version="1.1"
   id="Capa_1"
   viewBox="0 0 60 40.001001"
   xml:space="preserve"
   sodipodi:docname="food-tertiary.svg"
   inkscape:version="1.3.1 (91b66b0783, 2023-11-16)"
   xmlns:inkscape="http://www.inkscape.org/namespaces/inkscape"
   xmlns:sodipodi="http://sodipodi.sourceforge.net/DTD/sodipodi-0.dtd"
   xmlns="http://www.w3.org/2000/svg"
   xmlns:svg="http://www.w3.org/2000/svg"><defs
   id="defs4" /><sodipodi:namedview
   id="namedview4"
   pagecolor="#505050"
   bordercolor="#eeeeee"
   borderopacity="1"
   inkscape:showpageshadow="0"
   inkscape:pageopacity="0"
   inkscape:pagecheckerboard="0"
   inkscape:deskcolor="#d1d1d1"
   inkscape:zoom="0.98375"
   inkscape:cx="400"
   inkscape:cy="253.62135"
   inkscape:window-width="1920"
   inkscape:window-height="1001"
   inkscape:window-x="-9"
   inkscape:window-y="-9"
   inkscape:window-maximized="1"
   inkscape:current-layer="Capa_1" />
<g
   id="g4"
   transform="translate(0,-17.097)">
	
	
	
	<path
   d="M 55.624,43.721 C 53.812,33.08 45.517,24.625 34.957,22.577 34.974,22.417 35,22.256 35,22.097 c 0,-2.757 -2.243,-5 -5,-5 -2.757,0 -5,2.243 -5,5 0,0.159 0.025,0.32 0.043,0.48 C 14.483,24.625 6.188,33.08 4.376,43.721 2.286,44.904 0,46.645 0,48.598 c 0,5.085 15.512,8.5 30,8.5 14.488,0 30,-3.415 30,-8.5 0,-1.953 -2.286,-3.694 -4.376,-4.877 z M 27.006,22.27 C 27.002,22.212 27,22.154 27,22.098 c 0,-1.654 1.346,-3 3,-3 1.654,0 3,1.346 3,3 0,0.057 -0.002,0.114 -0.006,0.172 -0.047,-0.005 -0.094,-0.007 -0.14,-0.012 -0.344,-0.038 -0.69,-0.065 -1.038,-0.089 -0.128,-0.009 -0.255,-0.022 -0.383,-0.029 -0.474,-0.026 -0.951,-0.041 -1.432,-0.041 -0.481,0 -0.958,0.015 -1.432,0.041 -0.128,0.007 -0.255,0.02 -0.383,0.029 -0.348,0.024 -0.694,0.052 -1.038,0.089 -0.048,0.005 -0.095,0.006 -0.142,0.012 z m -1.88,4.365 c 1.582,-0.356 3.217,-0.537 4.86,-0.537 0.004,0 0.009,0 0.014,0 0.552,0 1,0.448 1,1.001 0,0.552 -0.448,0.999 -1,0.999 v 0 c -0.004,0 -0.009,0 -0.013,0 -1.496,0 -2.982,0.164 -4.421,0.488 -0.074,0.017 -0.148,0.024 -0.221,0.024 -0.457,0 -0.87,-0.315 -0.975,-0.78 -0.121,-0.539 0.217,-1.074 0.756,-1.195 z m -5.976,2.362 c 0.476,-0.281 1.088,-0.124 1.37,0.351 0.282,0.476 0.125,1.089 -0.351,1.37 -4.713,2.792 -8.147,7.861 -9.186,13.56 -0.088,0.482 -0.509,0.82 -0.983,0.82 -0.06,0 -0.12,-0.005 -0.18,-0.017 C 9.277,44.982 8.916,44.462 9.015,43.918 10.158,37.658 13.947,32.08 19.15,28.997 Z M 30,55.098 C 12.904,55.098 2,50.829 2,48.598 2,48.215 2.474,47.371 4.064,46.27 4.06,46.327 4.062,46.383 4.058,46.44 4.024,46.988 4,47.54 4,48.098 v 0.788 l 0.767,0.185 c 8.254,1.981 16.744,2.985 25.233,2.985 8.489,0 16.979,-1.004 25.233,-2.985 L 56,48.886 V 48.098 C 56,47.54 55.976,46.989 55.942,46.44 55.938,46.383 55.94,46.327 55.936,46.27 57.526,47.371 58,48.215 58,48.598 c 0,2.231 -10.904,6.5 -28,6.5 z"
   id="path4"
   style="fill:#016e76;fill-opacity:1" />
</g>
</svg>
